<svg width="130" height="53" viewBox="0 0 130 53" fill="none" xmlns="http://www.w3.org/2000/svg">
<path d="M21.515 52V51.545C28.405 51.545 29.185 50.505 26.52 39.52L16.315 0.714998L10.01 21.905C9.36 24.18 8.645 26.455 7.995 28.73L20.995 23.725L21.19 24.115C20.02 24.635 19.63 25.48 19.63 26.39C19.63 27.365 19.955 28.015 22.36 31.915L23.01 32.955C23.075 33.085 23.205 33.28 23.27 33.41C24.44 35.685 25.22 38.415 25.22 42.055C25.22 46.8 21.515 51.935 13.845 52H3.575C3.575 46.215 4.55 40.365 5.98 34.58L6.175 33.8L7.28 29.705C5.395 30.29 3.25 31.005 0.845 31.915L0.65 31.525L7.475 28.925L9.555 21.905L16.055 -7.7486e-07H20.15L30.615 39.78C33.605 50.505 35.035 51.545 41.86 51.545L41.99 52H21.515ZM6.435 34.71C2.665 51.415 3.77 51.545 13.715 51.545C21.385 51.545 24.765 46.28 24.765 41.925C24.765 38.285 23.92 35.49 22.555 33.15C19.305 28.21 15.73 27.3 7.8 29.575C7.28 31.265 6.825 32.955 6.435 34.71ZM42.6232 52V51.545C48.0182 51.545 48.3432 50.83 48.3432 33.8V27.82C48.3432 23.465 46.3932 23.4 43.9232 23.4V22.945C47.1732 22.945 51.0082 20.995 54.1282 19.045V19.5C52.8932 20.54 52.2432 21.645 52.2432 27.885V29.705C53.7382 23.205 58.5482 18.46 63.1632 18.46C69.1432 18.46 69.3382 24.505 69.3382 28.795V33.8C69.3382 50.83 69.6632 51.545 75.0582 51.545V52H59.7182V51.545C65.1132 51.545 65.4382 50.83 65.4382 33.8V29.055C65.4382 25.415 65.0482 21.385 61.1482 21.385C57.1832 21.385 52.2432 26.78 52.2432 33.8C52.2432 50.83 52.5682 51.545 57.9632 51.545V52H42.6232ZM87.0863 52.91C75.1263 52.91 77.8563 40.365 75.5813 40.365C75.1913 40.365 74.8013 40.365 74.3463 40.56V40.105L84.1613 36.4V36.855C81.4313 37.895 79.6763 39.455 79.6763 41.535C79.6763 45.045 80.4563 52.455 87.0863 52.455C90.2063 52.455 94.0413 50.635 94.0413 45.5C94.0413 39.065 85.3313 36.66 80.9113 31.525L79.7413 31.98V31.46L80.5213 31.135C79.2213 29.445 78.3113 27.43 78.3113 24.96C78.3113 19.89 82.9263 18.46 87.5413 18.46C94.8213 18.46 94.4313 24.765 96.3163 24.765C97.0963 24.765 98.6563 24.31 99.6313 23.92V24.44L85.5263 29.77C90.1413 33.605 97.9413 36.465 97.9413 44.395C97.9413 50.7 91.4413 52.91 87.0863 52.91ZM82.2763 24.05C82.2763 26.195 83.3813 27.82 85.0063 29.315C91.5713 26.65 93.5863 25.545 93.5863 24.05C93.5863 20.15 90.5963 18.915 87.5413 18.915C84.3563 18.915 82.2763 20.67 82.2763 24.05ZM117.063 52.585C108.418 52.585 101.463 46.865 101.463 35.62C101.463 24.83 107.768 18.655 116.023 18.59C126.683 18.655 125.708 28.145 127.918 28.145C128.373 28.145 128.633 28.08 129.608 27.69V28.21L106.143 37.115C107.183 46.345 111.863 49.79 118.168 49.79C123.043 49.79 126.943 47.905 129.153 42.185H129.608C127.203 48.425 123.563 52.585 117.063 52.585ZM106.013 35.62L106.078 36.595C116.088 32.695 123.563 29.705 123.563 27.17C123.563 23.92 121.873 19.045 115.958 19.045C109.328 19.045 105.298 25.155 106.013 35.62Z" fill="#CA9A60"/>
</svg>
