<svg width="38" height="16" viewBox="0 0 38 16" fill="none" xmlns="http://www.w3.org/2000/svg">
<path d="M18.0403 5.73498C18.0791 6.54977 18.0979 7.30425 18.1528 8.05605C18.2212 8.9901 18.6943 9.61325 19.5854 9.96168C20.6213 10.3677 21.0582 11.3996 20.6602 12.3605C20.364 13.0761 19.6109 13.5411 18.8443 13.4808C18.043 13.4178 17.3702 12.8268 17.2067 12.0348C17.184 11.9263 17.1719 11.8137 17.1612 11.7025C17.1049 11.1276 16.8181 10.7845 16.2124 10.8126C15.679 10.8368 15.3896 11.2723 15.4391 11.9276C15.6093 14.175 17.7575 15.6826 19.9419 15.0876C21.4133 14.6869 22.472 13.3428 22.5337 11.7882C22.5846 10.5071 21.8475 8.92309 20.23 8.38571C20.0585 8.32809 19.8052 8.16057 19.7972 8.02924C19.7503 7.34177 19.7489 6.6476 19.7918 5.95878C19.7972 5.86765 20.1362 5.7323 20.3238 5.72426C24.8896 5.54067 29.2985 4.57177 33.6029 3.08693C34.7407 2.69428 35.8637 2.25607 36.9867 1.82321C37.8792 1.47881 38.1606 1.05667 37.9154 0.49383C37.6755 -0.0569534 37.2252 -0.1387 36.3662 0.207047C32.7962 1.63962 29.1417 2.77871 25.3465 3.45144C19.2196 4.53559 13.2052 3.9848 7.28861 2.18906C5.3066 1.58736 3.37952 0.808754 1.41627 0.142721C1.1067 0.0381937 0.693952 0.0020113 0.41253 0.1253C0.198113 0.219108 -0.0471266 0.654642 0.0078177 0.863698C0.0895642 1.17594 0.368306 1.56591 0.657769 1.6758C2.6371 2.42894 4.61912 3.18476 6.64 3.81059C10.3213 4.94968 14.0937 5.61571 18.0403 5.73498Z" fill="#CA9A60"/>
</svg>
