<svg width="55" height="11" viewBox="0 0 55 11" fill="none" xmlns="http://www.w3.org/2000/svg">
<path d="M0.0467067 5.08202C0.338958 5.08528 0.631963 5.09698 0.924326 5.09173C5.03382 5.01677 9.14345 4.95313 13.2521 4.85934C20.8131 4.68676 28.3582 4.24917 35.8762 3.44837C39.4458 3.06815 43.0053 2.57357 46.5558 2.03727C49.2198 1.63471 51.8589 1.06054 54.4317 0.200335C54.5295 0.16706 54.6347 0.158631 54.7373 0.139108C54.7558 0.18092 54.7743 0.222731 54.7929 0.26548C54.6819 0.347157 54.5803 0.454465 54.4581 0.506915C52.3199 1.42761 50.1042 2.08218 47.8557 2.61307C38.9447 4.7198 29.8851 5.65598 20.7756 6.16864C17.8973 6.33047 15.0115 6.38905 12.128 6.45309C11.0665 6.47676 10.0013 6.37984 8.92139 6.42121C9.38184 6.55687 9.8423 6.69254 10.3706 6.84861C8.98346 8.25983 7.63599 9.62879 5.83666 10.3341C7.32729 10.2118 8.56955 9.39827 9.85072 8.68994C8.68739 9.54083 7.49179 10.3124 6.05175 10.4954C5.96665 10.5058 5.87334 10.5217 5.79378 10.4967C5.66496 10.4552 5.50219 10.4131 5.43647 10.3093C5.39503 10.244 5.47673 10.0393 5.55353 9.94555C5.79105 9.65609 6.05236 9.39002 6.30414 9.1144C6.74761 8.62994 7.21944 8.17128 7.62027 7.64715C7.79157 7.42405 7.95694 6.98797 7.86427 6.78649C7.75541 6.5496 7.3738 6.36251 7.09422 6.326C5.4185 6.10677 3.73622 5.95047 2.059 5.74366C1.50113 5.67524 0.950737 5.52491 0.398456 5.40215C0.268999 5.37305 0.145934 5.30843 0.0198998 5.25919C0.029547 5.20164 0.0380851 5.14136 0.0467067 5.08202Z" fill="#00A2FD"/>
</svg>
