<svg width="218" height="109" viewBox="0 0 218 109" fill="none" xmlns="http://www.w3.org/2000/svg">
<g clip-path="url(#clip0_846_1066)">
<path d="M70.9349 68.0702C71.48 48.5014 85.4332 32.7429 104.815 29.8104C125.653 26.6548 145.992 41.3001 149.407 62.0017C149.83 64.5615 149.781 67.1973 149.943 69.7988C150.011 70.9046 149.533 71.5298 148.366 71.3631C138.923 70.0219 130.031 72.3708 121.165 75.2199C113.052 77.8288 104.641 77.5983 96.3124 76.8995C89.2118 76.3037 82.1628 75.0728 75.0941 74.0896C71.011 73.5232 71.0134 73.4938 70.9324 69.4065C70.9251 68.9627 70.9349 68.5164 70.9349 68.0702Z" fill="#FDC706"/>
<path d="M26.7305 88.22C29.6056 87.3128 32.4365 86.207 35.3656 85.5352C45.4788 83.2156 55.5405 84.3484 65.5015 86.5282C75.0893 88.627 84.6034 91.0667 94.174 93.2464C102.63 95.1712 111.221 95.9141 119.814 94.5974C126.421 93.5848 132.935 91.9714 139.498 90.6768C150.149 88.5755 160.861 87.0455 171.768 87.3913C179.683 87.6438 187.358 88.9776 194.572 92.3981C195.24 92.7144 195.876 93.1042 196.421 93.9109C194.516 93.7515 192.61 93.575 190.702 93.4328C178.942 92.5476 167.439 93.6682 156.191 97.422C146.64 100.61 137.038 103.665 127.379 106.516C114.84 110.216 102.193 109.591 89.8355 105.898C79.6536 102.858 69.6901 99.0599 59.7095 95.3845C49.228 91.5252 38.6262 88.4726 27.2976 88.9605C27.1798 88.9654 27.057 88.8918 26.9367 88.8575C26.8704 88.6442 26.7992 88.4309 26.7305 88.22Z" fill="#25B0FC"/>
<path d="M55.832 80.3763C62.5791 78.9787 69.3433 77.7282 76.2672 78.5692C82.6484 79.344 89.0075 80.3223 95.3961 81.0138C104.419 81.9896 113.364 81.1707 122.136 79.0007C130.506 76.9313 138.916 75.1316 147.548 74.96C155.53 74.8006 163.272 76.3576 170.635 79.4911C173.847 80.8568 176.96 82.4506 180.117 83.9413C180.063 84.1277 180.009 84.314 179.955 84.5004C177.699 84.1767 175.442 83.8506 173.189 83.527C164.2 82.2324 155.28 82.762 146.389 84.471C138.947 85.9004 131.515 87.4182 124.032 88.6C110.749 90.6964 97.6279 89.8308 84.6862 86.0549C75.2605 83.2989 65.7316 80.9721 55.832 80.3763Z" fill="#25B0FC"/>
<path d="M217.887 106.548C214.565 106.246 211.243 105.928 207.918 105.648C199.357 104.93 190.803 104.069 182.229 103.569C174.763 103.135 167.571 105.111 160.372 106.779C154.315 108.181 148.182 108.745 141.973 108.48C141.612 108.465 141.253 108.392 140.76 108.331C140.954 108.063 141.03 107.84 141.16 107.798C149.974 105.057 158.735 102.117 167.628 99.663C177.549 96.9267 187.636 97.5568 197.543 99.7881C203.98 101.24 210.239 103.481 216.573 105.391C217.077 105.543 217.528 105.864 218.002 106.104C217.963 106.251 217.924 106.401 217.887 106.548Z" fill="#25B0FC"/>
<path d="M0 101.757C16.9708 91.6477 44.7741 90.792 61.4429 102.149C51.5555 101.227 41.3269 99.5821 31.0885 99.511C20.7715 99.4423 10.4447 100.938 0 101.757Z" fill="#25B0FC"/>
<path d="M109.778 25.8579C109.176 24.9777 108.82 24.605 108.631 24.1612C106.434 18.9975 104.489 13.7455 104.059 8.0938C103.947 6.60058 104.086 5.02155 104.465 3.57246C105.091 1.17694 107.21 -0.188778 109.481 0.0196352C111.546 0.208433 112.911 1.57415 113.107 4.23939C113.294 6.76241 113.34 9.34918 112.989 11.8428C112.476 15.4839 111.575 19.0735 110.794 22.6729C110.598 23.5801 110.234 24.4481 109.778 25.8579Z" fill="black"/>
<path d="M130.462 28.653C130.462 27.8684 130.381 27.4222 130.475 27.0127C131.624 21.9176 132.851 16.8274 135.864 12.4434C136.662 11.2836 137.84 10.2661 139.058 9.54768C140.593 8.64047 142.181 9.17989 143.446 10.3396C144.61 11.4062 144.828 12.8234 144.138 14.1892C143.311 15.8221 142.508 17.5777 141.27 18.8723C138.243 22.0377 134.975 24.9751 131.786 27.9836C131.535 28.2215 131.147 28.3147 130.462 28.653Z" fill="black"/>
<path d="M88.1111 30.009C85.9775 28.3883 83.8537 27.0912 82.1227 25.3945C79.3262 22.6508 76.5321 19.8286 74.2217 16.6853C72.4957 14.3413 73.4802 11.9531 76.0632 11.2396C77.1115 10.9503 78.5724 11.0974 79.4858 11.6441C80.7429 12.3944 82.0466 13.5321 82.6555 14.8218C84.6566 19.0587 86.3605 23.4379 88.1578 27.7729C88.3002 28.1137 88.3026 28.5231 88.3149 28.9007C88.3247 29.1386 88.2339 29.3789 88.1111 30.009Z" fill="black"/>
<path d="M147.402 44.1983C150.351 40.6528 153.462 37.2691 157.69 35.158C158.446 34.7804 159.401 34.7167 160.273 34.6676C161.739 34.5843 162.875 35.4081 163.057 36.7444C163.187 37.7007 162.814 39.0885 162.139 39.7112C161.009 40.7509 159.536 41.5796 158.066 42.0602C154.667 43.1709 151.186 44.0217 147.739 44.978C147.626 44.7181 147.515 44.4582 147.402 44.1983Z" fill="black"/>
<path d="M71.9638 46.552C67.149 46.2456 62.4914 45.6448 58.2364 43.4798C56.0856 42.3862 55.4743 40.9739 56.1274 39.3728C56.8296 37.6565 58.6366 36.943 60.8046 37.681C65.5482 39.2968 68.7916 42.8398 71.9638 46.552Z" fill="black"/>
<path d="M154.027 64.4977C157.715 63.4458 161.366 62.3645 165.162 63.642C166.53 64.1029 167.44 65.0935 167.052 66.724C166.689 68.2516 165.481 68.4281 164.207 68.3349C160.472 68.0579 157.207 66.4911 154.027 64.4977Z" fill="black"/>
<path d="M66.8375 66.9815C63.7316 69.0068 60.6061 70.8089 56.9502 71.3263C55.6317 71.5126 54.3059 71.3729 53.913 69.7473C53.5325 68.1633 54.3574 67.0992 55.7619 66.6382C59.4497 65.4245 63.1276 65.9664 66.8375 66.9815Z" fill="black"/>
</g>
<defs>
<clipPath id="clip0_846_1066">
<rect width="218" height="109" fill="white"/>
</clipPath>
</defs>
</svg>
