<svg width="319" height="131" viewBox="0 0 319 131" fill="none" xmlns="http://www.w3.org/2000/svg">
<path d="M51.96 128V126.88C68.92 126.88 70.84 124.32 64.28 97.28L39.16 1.75999L23.64 53.92C22.04 59.52 20.28 65.12 18.68 70.72L50.68 58.4L51.16 59.36C48.28 60.64 47.32 62.72 47.32 64.96C47.32 67.36 48.12 68.96 54.04 78.56L55.64 81.12C55.8 81.44 56.12 81.92 56.28 82.24C59.16 87.84 61.08 94.56 61.08 103.52C61.08 115.2 51.96 127.84 33.08 128H7.8C7.8 113.76 10.2 99.36 13.72 85.12L14.2 83.2L16.92 73.12C12.28 74.56 7 76.32 1.08 78.56L0.6 77.6L17.4 71.2L22.52 53.92L38.52 -1.90735e-06H48.6L74.36 97.92C81.72 124.32 85.24 126.88 102.04 126.88L102.36 128H51.96ZM14.84 85.44C5.56 126.56 8.28 126.88 32.76 126.88C51.64 126.88 59.96 113.92 59.96 103.2C59.96 94.24 57.88 87.36 54.52 81.6C46.52 69.44 37.72 67.2 18.2 72.8C16.92 76.96 15.8 81.12 14.84 85.44ZM103.919 128V126.88C117.199 126.88 117.999 125.12 117.999 83.2V68.48C117.999 57.76 113.199 57.6 107.119 57.6V56.48C115.119 56.48 124.559 51.68 132.239 46.88V48C129.199 50.56 127.599 53.28 127.599 68.64V73.12C131.279 57.12 143.119 45.44 154.479 45.44C169.199 45.44 169.679 60.32 169.679 70.88V83.2C169.679 125.12 170.479 126.88 183.759 126.88V128H145.999V126.88C159.279 126.88 160.079 125.12 160.079 83.2V71.52C160.079 62.56 159.119 52.64 149.519 52.64C139.759 52.64 127.599 65.92 127.599 83.2C127.599 125.12 128.399 126.88 141.679 126.88V128H103.919ZM213.366 130.24C183.926 130.24 190.646 99.36 185.046 99.36C184.086 99.36 183.126 99.36 182.006 99.84V98.72L206.166 89.6V90.72C199.446 93.28 195.126 97.12 195.126 102.24C195.126 110.88 197.046 129.12 213.366 129.12C221.046 129.12 230.486 124.64 230.486 112C230.486 96.16 209.046 90.24 198.166 77.6L195.286 78.72V77.44L197.206 76.64C194.006 72.48 191.766 67.52 191.766 61.44C191.766 48.96 203.126 45.44 214.486 45.44C232.406 45.44 231.446 60.96 236.086 60.96C238.006 60.96 241.846 59.84 244.246 58.88V60.16L209.526 73.28C220.886 82.72 240.086 89.76 240.086 109.28C240.086 124.8 224.086 130.24 213.366 130.24ZM201.526 59.2C201.526 64.48 204.246 68.48 208.246 72.16C224.406 65.6 229.366 62.88 229.366 59.2C229.366 49.6 222.006 46.56 214.486 46.56C206.646 46.56 201.526 50.88 201.526 59.2ZM287.155 129.44C265.875 129.44 248.755 115.36 248.755 87.68C248.755 61.12 264.275 45.92 284.595 45.76C310.835 45.92 308.435 69.28 313.875 69.28C314.995 69.28 315.635 69.12 318.035 68.16V69.44L260.275 91.36C262.835 114.08 274.355 122.56 289.875 122.56C301.875 122.56 311.475 117.92 316.915 103.84H318.035C312.115 119.2 303.155 129.44 287.155 129.44ZM259.955 87.68L260.115 90.08C284.755 80.48 303.155 73.12 303.155 66.88C303.155 58.88 298.995 46.88 284.435 46.88C268.115 46.88 258.195 61.92 259.955 87.68Z" fill="black"/>
</svg>
