<svg width="115" height="42" viewBox="0 0 115 42" fill="none" xmlns="http://www.w3.org/2000/svg">
<path d="M0.8 33V32.72C5.68 32.72 5.84 31.88 5.84 21.8V12.2C5.84 2.12 5.68 1.28 0.8 1.28V1H8.24C9.2 1 10.52 0.639999 13.48 0.639999C19 0.639999 23.96 3.52 23.96 9.52C23.96 12 23.12 14.04 21.6 15.56C24.24 17.72 26 20.96 26 24.92C26 31.28 20.72 33.36 14 33.36C10.52 33.36 9.2 33 8.24 33H0.8ZM8.24 21.84C8.24 31.96 8.24 33.08 14.16 33.08C19.56 33.08 23.36 30.2 23.08 24C22.96 21.52 22.08 18.72 20.36 16.56C18.48 17.8 15.92 18.48 12.76 18.48C10.8 18.48 8.92 18.04 8.24 16.72V21.84ZM8.24 15.48C8.24 17.72 10.68 18.2 12.52 18.2C15.68 18.2 18 17.28 19.44 15.52C17.72 13.8 15.36 12.64 12.4 12.64C10.12 12.64 8.24 13.2 8.24 15.44V15.48ZM8.24 14.08C8.84 12.8 10.36 12.36 12.4 12.36C15.16 12.36 17.88 13.12 20.12 14.48C20.92 13 21.24 11.08 21 8.72C20.56 4.12 17.84 0.919998 13.64 0.919998C9.72 0.919998 8.24 2.04 8.24 12.16V14.08ZM37.1169 33.36C31.7969 33.36 27.5169 29.84 27.5169 22.92C27.5169 16.28 31.3969 12.48 36.4769 12.44C43.0369 12.48 42.4369 18.32 43.7969 18.32C44.0769 18.32 44.2369 18.28 44.8369 18.04V18.36L30.3969 23.84C31.0369 29.52 33.9169 31.64 37.7969 31.64C40.7969 31.64 43.1969 30.48 44.5569 26.96H44.8369C43.3569 30.8 41.1169 33.36 37.1169 33.36ZM30.3169 22.92L30.3569 23.52C36.5169 21.12 41.1169 19.28 41.1169 17.72C41.1169 15.72 40.0769 12.72 36.4369 12.72C32.3569 12.72 29.8769 16.48 30.3169 22.92ZM56.8297 33V32.72C57.9497 32.72 58.3897 31.16 58.5497 27.04C57.5897 30.88 54.6697 33.64 51.6297 33.64C47.3897 33.64 45.3897 31.48 45.3497 28.44C45.3497 28.4 45.3497 28.4 45.3497 28.36C45.4297 23.68 50.2697 21.84 53.3897 19.6L46.2297 16.88V16.56C46.7097 16.72 47.0297 16.76 47.3097 16.76C48.5897 16.76 49.4697 12.36 54.2697 12.36C58.1497 12.36 60.9897 13.96 61.0297 21V21.8C61.0297 32.28 61.2297 32.72 64.5497 32.72V33H56.8297ZM48.5097 28.4C48.5497 31 50.3097 31.84 52.1097 31.84C55.4697 31.84 58.3497 28.8 58.6297 24.76V21.8V21.6L53.6697 19.72C50.8297 22.08 48.5497 24.44 48.5097 28.4ZM49.9497 16.64C49.9497 17.76 52.2297 18.68 58.6297 21.28V21.12C58.6297 14.68 57.5097 12.64 54.2697 12.64C52.0697 12.64 49.9497 14.24 49.9497 16.64ZM74.1453 33.36C68.8253 33.36 64.5453 29.84 64.5453 22.92C64.5453 16.28 68.4253 12.48 73.4653 12.44C73.5053 12.44 73.5053 12.44 73.5053 12.44C76.2653 12.44 77.5453 14.4 78.8253 14.4C79.9453 14.4 80.5453 13.44 80.6253 13H80.9053L78.9053 22.84H78.6253C79.3853 18.72 78.5453 12.72 73.4653 12.72C69.3853 12.72 66.9053 16.48 67.3453 22.92C67.7853 29.32 70.7453 31.64 74.8253 31.64C77.8253 31.64 80.2253 30.48 81.5853 26.96H81.8653C80.3853 30.8 78.1453 33.36 74.1453 33.36ZM81.5906 33V32.72C84.9106 32.72 85.1106 32.28 85.1106 21.8V6.4C85.1106 3.72 83.9106 3.68 82.3906 3.68V3.4C84.3906 3.4 86.7506 2.2 88.6706 1V1.28C87.9106 1.92 87.5106 2.6 87.5106 6.44V19.28C88.4306 15.28 91.3906 12.36 94.2306 12.36C97.7906 12.36 98.0306 16.08 98.0306 18.72V21.8C98.0306 32.28 98.2306 32.72 101.551 32.72V33H92.1106V32.72C95.4306 32.72 95.6306 32.28 95.6306 21.8V18.88C95.6306 16.64 95.3906 14.16 92.9906 14.16C90.5506 14.16 87.5106 17.48 87.5106 21.8C87.5106 32.28 87.7106 32.72 91.0306 32.72V33H81.5906ZM107.139 33L104.259 22.04C101.979 13.64 101.499 13.28 98.3391 13.28V13H107.899V13.28C104.699 13.28 104.579 13.72 107.299 24.2L109.499 32.56L111.859 24.56C112.379 22.8 112.939 21.04 113.339 19.28C114.299 14.84 114.139 13.16 110.499 13.16V13H114.459C114.459 15.08 114.099 17.2 113.619 19.32L113.459 20C113.059 21.52 112.579 23.04 112.139 24.56L109.659 33C107.419 40.44 105.379 40.44 102.299 40.44C99.9391 40.44 99.6591 41.56 99.5791 42H99.2991L100.979 33.68H101.259C100.499 37.8 101.219 40.12 103.619 40.12C106.299 40.12 107.699 38.24 109.379 33H107.139Z" fill="black"/>
</svg>
