<svg width="55" height="11" viewBox="0 0 55 11" fill="none" xmlns="http://www.w3.org/2000/svg">
<rect width="55" height="11" fill="#4E4D4D"/>
<rect width="1440" height="985" transform="translate(-529 -67)" fill="white"/>
<path d="M0.0486598 5.08202C0.340911 5.08528 0.633917 5.09698 0.926279 5.09173C5.03577 5.01677 9.1454 4.95313 13.2541 4.85934C20.815 4.68676 28.3601 4.24917 35.8781 3.44837C39.4478 3.06815 43.0072 2.57357 46.5578 2.03727C49.2217 1.63471 51.8608 1.06054 54.4336 0.200335C54.5314 0.16706 54.6367 0.158631 54.7392 0.139108C54.7577 0.18092 54.7762 0.222731 54.7948 0.26548C54.6839 0.347157 54.5822 0.454465 54.46 0.506915C52.3219 1.42761 50.1062 2.08218 47.8577 2.61307C38.9466 4.7198 29.887 5.65598 20.7775 6.16864C17.8992 6.33047 15.0135 6.38905 12.13 6.45309C11.0685 6.47676 10.0032 6.37984 8.92334 6.42121C9.3838 6.55687 9.84425 6.69254 10.3726 6.84861C8.98541 8.25983 7.63794 9.62879 5.83861 10.3341C7.32925 10.2118 8.5715 9.39827 9.85267 8.68994C8.68934 9.54083 7.49374 10.3124 6.0537 10.4954C5.9686 10.5058 5.8753 10.5217 5.79573 10.4967C5.66691 10.4552 5.50414 10.4131 5.43843 10.3093C5.39698 10.244 5.47868 10.0393 5.55549 9.94555C5.793 9.65609 6.05432 9.39002 6.3061 9.1144C6.74956 8.62994 7.2214 8.17128 7.62223 7.64715C7.79352 7.42405 7.9589 6.98797 7.86622 6.78649C7.75736 6.5496 7.37575 6.36251 7.09617 6.326C5.42045 6.10677 3.73817 5.95047 2.06095 5.74366C1.50308 5.67524 0.95269 5.52491 0.400409 5.40215C0.270952 5.37305 0.147887 5.30843 0.0218529 5.25919C0.0315001 5.20164 0.0400382 5.14136 0.0486598 5.08202Z" fill="#00A2FD"/>
</svg>
