<svg width="551" height="60" viewBox="0 0 551 60" fill="none" xmlns="http://www.w3.org/2000/svg">
<path d="M0.424927 0.724568C3.33832 1.01629 6.25171 1.3927 9.17383 1.59972C50.2478 4.49809 91.3131 7.50938 132.396 10.2195C207.997 15.207 283.677 17.5408 359.408 16.2327C395.366 15.6117 431.324 13.8425 467.231 11.6499C494.171 10.0031 521.016 6.62484 547.454 0.33877C548.459 0.0941027 549.517 0.103513 550.558 -1.93298e-08C550.705 0.432873 550.853 0.865746 551 1.30803C549.821 2.02321 548.711 3.00188 547.445 3.41593C525.291 10.6901 502.599 15.2447 479.691 18.5383C388.898 31.6185 297.663 32.9077 206.306 29.9341C177.441 28.9931 148.593 27.0169 119.762 25.0972C109.149 24.3914 98.6053 22.4811 87.7927 21.9353C92.2669 23.6951 96.7411 25.4548 101.874 27.478C86.7783 40.3042 72.1158 52.7446 53.5341 58.1743C68.5174 58.2779 81.6364 51.2766 95.0502 45.3575C82.6855 52.8011 70.0695 59.4259 55.537 59.9717C54.6786 59.9999 53.7335 60.0752 52.9618 59.7553C51.7132 59.2283 50.1264 58.6637 49.5628 57.5721C49.2073 56.8851 50.2044 54.9184 51.0542 54.0526C53.6815 51.3801 56.5255 48.9617 59.2828 46.4397C64.1385 42.0075 69.2544 37.8575 73.7199 32.9924C75.6275 30.9222 77.6651 26.7252 76.9194 24.6361C76.0437 22.18 72.4019 19.978 69.6445 19.3663C53.1178 15.6963 36.4698 12.6474 19.9171 9.09972C14.411 7.92343 9.05243 5.93786 3.65045 4.22519C2.38452 3.82055 1.21393 3.06773 -1.0777e-07 2.46547C0.1474 1.90085 0.286194 1.30801 0.424927 0.724568Z" fill="black"/>
</svg>
