<svg width="80" height="33" viewBox="0 0 80 33" fill="none" xmlns="http://www.w3.org/2000/svg">
<path d="M13.24 32V31.72C17.48 31.72 17.96 31.08 16.32 24.32L10.04 0.439999L6.16 13.48C5.76 14.88 5.32 16.28 4.92 17.68L12.92 14.6L13.04 14.84C12.32 15.16 12.08 15.68 12.08 16.24C12.08 16.84 12.28 17.24 13.76 19.64L14.16 20.28C14.2 20.36 14.28 20.48 14.32 20.56C15.04 21.96 15.52 23.64 15.52 25.88C15.52 28.8 13.24 31.96 8.52 32H2.2C2.2 28.44 2.8 24.84 3.68 21.28L3.8 20.8L4.48 18.28C3.32 18.64 2 19.08 0.52 19.64L0.4 19.4L4.6 17.8L5.88 13.48L9.88 -4.76837e-07H12.4L18.84 24.48C20.68 31.08 21.56 31.72 25.76 31.72L25.84 32H13.24ZM3.96 21.36C1.64 31.64 2.32 31.72 8.44 31.72C13.16 31.72 15.24 28.48 15.24 25.8C15.24 23.56 14.72 21.84 13.88 20.4C11.88 17.36 9.68 16.8 4.8 18.2C4.48 19.24 4.2 20.28 3.96 21.36ZM26.2297 32V31.72C29.5497 31.72 29.7497 31.28 29.7497 20.8V17.12C29.7497 14.44 28.5497 14.4 27.0297 14.4V14.12C29.0297 14.12 31.3897 12.92 33.3097 11.72V12C32.5497 12.64 32.1497 13.32 32.1497 17.16V18.28C33.0697 14.28 36.0297 11.36 38.8697 11.36C42.5497 11.36 42.6697 15.08 42.6697 17.72V20.8C42.6697 31.28 42.8697 31.72 46.1897 31.72V32H36.7497V31.72C40.0697 31.72 40.2697 31.28 40.2697 20.8V17.88C40.2697 15.64 40.0297 13.16 37.6297 13.16C35.1897 13.16 32.1497 16.48 32.1497 20.8C32.1497 31.28 32.3497 31.72 35.6697 31.72V32H26.2297ZM53.5916 32.56C46.2316 32.56 47.9116 24.84 46.5116 24.84C46.2716 24.84 46.0316 24.84 45.7516 24.96V24.68L51.7916 22.4V22.68C50.1116 23.32 49.0316 24.28 49.0316 25.56C49.0316 27.72 49.5116 32.28 53.5916 32.28C55.5116 32.28 57.8716 31.16 57.8716 28C57.8716 24.04 52.5116 22.56 49.7916 19.4L49.0716 19.68V19.36L49.5516 19.16C48.7516 18.12 48.1916 16.88 48.1916 15.36C48.1916 12.24 51.0316 11.36 53.8716 11.36C58.3516 11.36 58.1116 15.24 59.2716 15.24C59.7516 15.24 60.7116 14.96 61.3116 14.72V15.04L52.6316 18.32C55.4716 20.68 60.2716 22.44 60.2716 27.32C60.2716 31.2 56.2716 32.56 53.5916 32.56ZM50.6316 14.8C50.6316 16.12 51.3116 17.12 52.3116 18.04C56.3516 16.4 57.5916 15.72 57.5916 14.8C57.5916 12.4 55.7516 11.64 53.8716 11.64C51.9116 11.64 50.6316 12.72 50.6316 14.8ZM72.0388 32.36C66.7188 32.36 62.4388 28.84 62.4388 21.92C62.4388 15.28 66.3188 11.48 71.3988 11.44C77.9588 11.48 77.3588 17.32 78.7188 17.32C78.9988 17.32 79.1588 17.28 79.7588 17.04V17.36L65.3188 22.84C65.9588 28.52 68.8388 30.64 72.7188 30.64C75.7188 30.64 78.1188 29.48 79.4788 25.96H79.7588C78.2788 29.8 76.0388 32.36 72.0388 32.36ZM65.2388 21.92L65.2788 22.52C71.4388 20.12 76.0388 18.28 76.0388 16.72C76.0388 14.72 74.9988 11.72 71.3588 11.72C67.2788 11.72 64.7988 15.48 65.2388 21.92Z" fill="black"/>
</svg>
