<svg width="160" height="60" viewBox="0 0 160 60" fill="none" xmlns="http://www.w3.org/2000/svg">
<path d="M36.86 47V46.699C42.106 46.699 42.278 45.796 42.278 34.96V24.64C42.278 13.804 42.106 12.901 36.86 12.901V12.6H44.858C45.89 12.6 47.309 12.213 50.491 12.213C56.425 12.213 61.757 15.309 61.757 21.759C61.757 24.425 60.854 26.618 59.22 28.252C62.058 30.574 63.95 34.057 63.95 38.314C63.95 45.151 58.274 47.387 51.05 47.387C47.309 47.387 45.89 47 44.858 47H36.86ZM44.858 35.003C44.858 45.882 44.858 47.086 51.222 47.086C57.027 47.086 61.112 43.99 60.811 37.325C60.682 34.659 59.736 31.649 57.887 29.327C55.866 30.66 53.114 31.391 49.717 31.391C47.61 31.391 45.589 30.918 44.858 29.499V35.003ZM44.858 28.166C44.858 30.574 47.481 31.09 49.459 31.09C52.856 31.09 55.35 30.101 56.898 28.209C55.049 26.36 52.512 25.113 49.33 25.113C46.879 25.113 44.858 25.715 44.858 28.123V28.166ZM44.858 26.661C45.503 25.285 47.137 24.812 49.33 24.812C52.297 24.812 55.221 25.629 57.629 27.091C58.489 25.5 58.833 23.436 58.575 20.899C58.102 15.954 55.178 12.514 50.663 12.514C46.449 12.514 44.858 13.718 44.858 24.597V26.661ZM75.9006 47.387C70.1816 47.387 65.5806 43.603 65.5806 36.164C65.5806 29.026 69.7516 24.941 75.2126 24.898C82.2646 24.941 81.6196 31.219 83.0816 31.219C83.3826 31.219 83.5546 31.176 84.1996 30.918V31.262L68.6766 37.153C69.3646 43.259 72.4606 45.538 76.6316 45.538C79.8566 45.538 82.4366 44.291 83.8986 40.507H84.1996C82.6086 44.635 80.2006 47.387 75.9006 47.387ZM68.5906 36.164L68.6336 36.809C75.2556 34.229 80.2006 32.251 80.2006 30.574C80.2006 28.424 79.0826 25.199 75.1696 25.199C70.7836 25.199 68.1176 29.241 68.5906 36.164ZM97.0919 47V46.699C98.2959 46.699 98.7689 45.022 98.9409 40.593C97.9089 44.721 94.7699 47.688 91.5019 47.688C86.9439 47.688 84.7939 45.366 84.7509 42.098C84.7509 42.055 84.7509 42.055 84.7509 42.012C84.8369 36.981 90.0399 35.003 93.3939 32.595L85.6969 29.671V29.327C86.2129 29.499 86.5569 29.542 86.8579 29.542C88.2339 29.542 89.1799 24.812 94.3399 24.812C98.5109 24.812 101.564 26.532 101.607 34.1V34.96C101.607 46.226 101.822 46.699 105.391 46.699V47H97.0919ZM88.1479 42.055C88.1909 44.85 90.0829 45.753 92.0179 45.753C95.6299 45.753 98.7259 42.485 99.0269 38.142V34.96V34.745L93.6949 32.724C90.6419 35.261 88.1909 37.798 88.1479 42.055ZM89.6959 29.413C89.6959 30.617 92.1469 31.606 99.0269 34.401V34.229C99.0269 27.306 97.8229 25.113 94.3399 25.113C91.9749 25.113 89.6959 26.833 89.6959 29.413ZM115.706 47.387C109.987 47.387 105.386 43.603 105.386 36.164C105.386 29.026 109.557 24.941 114.975 24.898C115.018 24.898 115.018 24.898 115.018 24.898C117.985 24.898 119.361 27.005 120.737 27.005C121.941 27.005 122.586 25.973 122.672 25.5H122.973L120.823 36.078H120.522C121.339 31.649 120.436 25.199 114.975 25.199C110.589 25.199 107.923 29.241 108.396 36.164C108.869 43.044 112.051 45.538 116.437 45.538C119.662 45.538 122.242 44.291 123.704 40.507H124.005C122.414 44.635 120.006 47.387 115.706 47.387ZM123.71 47V46.699C127.279 46.699 127.494 46.226 127.494 34.96V18.405C127.494 15.524 126.204 15.481 124.57 15.481V15.18C126.72 15.18 129.257 13.89 131.321 12.6V12.901C130.504 13.589 130.074 14.32 130.074 18.448V32.251C131.063 27.951 134.245 24.812 137.298 24.812C141.125 24.812 141.383 28.811 141.383 31.649V34.96C141.383 46.226 141.598 46.699 145.167 46.699V47H135.019V46.699C138.588 46.699 138.803 46.226 138.803 34.96V31.821C138.803 29.413 138.545 26.747 135.965 26.747C133.342 26.747 130.074 30.316 130.074 34.96C130.074 46.226 130.289 46.699 133.858 46.699V47H123.71ZM151.174 47L148.078 35.218C145.627 26.188 145.111 25.801 141.714 25.801V25.5H151.991V25.801C148.551 25.801 148.422 26.274 151.346 37.54L153.711 46.527L156.248 37.927C156.807 36.035 157.409 34.143 157.839 32.251C158.871 27.478 158.699 25.672 154.786 25.672V25.5H159.043C159.043 27.736 158.656 30.015 158.14 32.294L157.968 33.025C157.538 34.659 157.022 36.293 156.549 37.927L153.883 47C151.475 54.998 149.282 54.998 145.971 54.998C143.434 54.998 143.133 56.202 143.047 56.675H142.746L144.552 47.731H144.853C144.036 52.16 144.81 54.654 147.39 54.654C150.271 54.654 151.776 52.633 153.582 47H151.174Z" fill="black"/>
<path d="M0.776899 51.968C0.332957 51.968 0 51.6056 0 51.1526C0.0443942 49.8162 0.288563 47.0982 1.64259 45.2183C3.46275 42.7041 10.1219 38.31 8.41271 34.4368C8.36831 34.3462 8.4571 34.2556 8.54589 34.3009C9.63355 34.7539 13.74 36.8151 13.8066 41.6848C13.8066 41.7754 13.9176 41.8208 13.9842 41.7755C15.094 40.9148 21.1317 35.7052 18.8232 25.1277C18.801 25.0371 18.8897 24.9691 18.9785 25.0144C20.1772 25.6713 26.237 29.4765 25.9928 38.1967C25.8818 42.0472 24.3946 45.6486 21.5756 48.2081C20.377 49.2953 19.0451 50.2239 17.6023 50.9261C16.1595 51.6056 14.7611 51.8774 13.1851 51.9906C12.3638 52.0133 3.46275 51.9906 0.776899 51.968Z" fill="#25B0FC"/>
<path d="M0 34.5212V11.1951C0 10.5551 0.507327 10.0476 1.147 10.0255C3.37483 10.0034 8.13929 9.98135 8.93337 10.0255C9.99214 10.0917 13.4331 10.0255 15.9698 14.0198C17.5359 16.4915 17.205 19.4265 15.7271 21.854C14.7787 23.4209 13.1684 24.4802 11.7568 25.6056C10.1465 26.8635 8.53633 28.0993 6.92612 29.3131C5.40414 30.4827 3.68364 31.4316 2.31606 32.7778C1.61021 33.4619 0.463212 34.9405 0 35.9998C0 36.0218 0 34.5212 0 34.5212Z" fill="black"/>
</svg>
