<svg width="17" height="15" viewBox="0 0 17 15" fill="none" xmlns="http://www.w3.org/2000/svg">
<path d="M8.5 15C8.25488 15 8.01767 14.9689 7.82 14.899C4.79954 13.8808 0 10.2668 0 4.92746C0 2.20725 2.23767 0 4.9893 0C6.32558 0 7.57488 0.512954 8.5 1.43005C9.42512 0.512954 10.6744 0 12.0107 0C14.7623 0 17 2.21503 17 4.92746C17 10.2746 12.2005 13.8808 9.18 14.899C8.98233 14.9689 8.74512 15 8.5 15ZM4.9893 1.1658C2.89395 1.1658 1.18605 2.85233 1.18605 4.92746C1.18605 10.2358 6.38093 13.1891 8.20744 13.8031C8.34977 13.8497 8.65814 13.8497 8.80047 13.8031C10.6191 13.1891 15.8219 10.2435 15.8219 4.92746C15.8219 2.85233 14.114 1.1658 12.0186 1.1658C10.8167 1.1658 9.70186 1.71762 8.98233 2.67358C8.76093 2.96891 8.25488 2.96891 8.03349 2.67358C7.29814 1.70984 6.19116 1.1658 4.9893 1.1658Z" fill="white"/>
</svg>
