<svg width="19" height="19" viewBox="0 0 19 19" fill="none" xmlns="http://www.w3.org/2000/svg">
<path d="M9.10433 17.2187C4.63141 17.2187 0.989746 13.577 0.989746 9.10408C0.989746 4.63117 4.63141 0.989502 9.10433 0.989502C13.5772 0.989502 17.2189 4.63117 17.2189 9.10408C17.2189 13.577 13.5772 17.2187 9.10433 17.2187ZM9.10433 2.177C5.28058 2.177 2.17725 5.28825 2.17725 9.10408C2.17725 12.9199 5.28058 16.0312 9.10433 16.0312C12.9281 16.0312 16.0314 12.9199 16.0314 9.10408C16.0314 5.28825 12.9281 2.177 9.10433 2.177Z" fill="white"/>
<path d="M17.4168 18.0103C17.2664 18.0103 17.116 17.9549 16.9972 17.8361L15.4139 16.2528C15.1843 16.0232 15.1843 15.6432 15.4139 15.4136C15.6435 15.1841 16.0235 15.1841 16.2531 15.4136L17.8364 16.997C18.066 17.2266 18.066 17.6066 17.8364 17.8361C17.7176 17.9549 17.5672 18.0103 17.4168 18.0103Z" fill="white"/>
</svg>
