<svg width="19" height="19" viewBox="0 0 19 19" fill="none" xmlns="http://www.w3.org/2000/svg">
<path d="M9.10482 17.2187C4.6319 17.2187 0.990234 13.5771 0.990234 9.10415C0.990234 4.63123 4.6319 0.989563 9.10482 0.989563C13.5777 0.989563 17.2194 4.63123 17.2194 9.10415C17.2194 13.5771 13.5777 17.2187 9.10482 17.2187ZM9.10482 2.17706C5.28107 2.17706 2.17773 5.28831 2.17773 9.10415C2.17773 12.92 5.28107 16.0312 9.10482 16.0312C12.9286 16.0312 16.0319 12.92 16.0319 9.10415C16.0319 5.28831 12.9286 2.17706 9.10482 2.17706Z" fill="black"/>
<path d="M17.4173 18.0104C17.2669 18.0104 17.1165 17.955 16.9977 17.8363L15.4144 16.2529C15.1848 16.0233 15.1848 15.6433 15.4144 15.4138C15.644 15.1842 16.024 15.1842 16.2535 15.4138L17.8369 16.9971C18.0665 17.2267 18.0665 17.6067 17.8369 17.8363C17.7181 17.955 17.5677 18.0104 17.4173 18.0104Z" fill="black"/>
</svg>
