<svg width="21" height="21" viewBox="0 0 21 21" fill="none" xmlns="http://www.w3.org/2000/svg">
<path d="M15.9163 15.5312H6.59749C5.73124 15.5312 4.89999 15.1638 4.31374 14.525C3.72749 13.8863 3.43 13.0287 3.5 12.1625L4.22625 3.4475C4.2525 3.17625 4.15624 2.91376 3.97249 2.71251C3.78874 2.51126 3.535 2.40625 3.26375 2.40625H1.75C1.39125 2.40625 1.09375 2.10875 1.09375 1.75C1.09375 1.39125 1.39125 1.09375 1.75 1.09375H3.2725C3.91125 1.09375 4.51499 1.365 4.94374 1.82875C5.17999 2.09125 5.355 2.3975 5.45125 2.73875H16.38C17.2638 2.73875 18.0775 3.08875 18.6725 3.71875C19.2587 4.3575 19.5563 5.18875 19.4863 6.0725L19.0137 12.635C18.9175 14.2363 17.5175 15.5312 15.9163 15.5312ZM5.495 4.0425L4.8125 12.2675C4.76875 12.775 4.935 13.2562 5.27625 13.6325C5.6175 14.0087 6.08999 14.21 6.59749 14.21H15.9163C16.8263 14.21 17.6488 13.44 17.7188 12.53L18.1912 5.96751C18.2262 5.45126 18.06 4.96126 17.7188 4.60251C17.3775 4.23501 16.905 4.03374 16.3887 4.03374H5.495V4.0425Z" fill="black"/>
<path d="M14.2188 19.9062C13.2562 19.9062 12.4688 19.1188 12.4688 18.1562C12.4688 17.1937 13.2562 16.4062 14.2188 16.4062C15.1813 16.4062 15.9688 17.1937 15.9688 18.1562C15.9688 19.1188 15.1813 19.9062 14.2188 19.9062ZM14.2188 17.7188C13.9737 17.7188 13.7812 17.9112 13.7812 18.1562C13.7812 18.4013 13.9737 18.5938 14.2188 18.5938C14.4638 18.5938 14.6562 18.4013 14.6562 18.1562C14.6562 17.9112 14.4638 17.7188 14.2188 17.7188Z" fill="black"/>
<path d="M7.21875 19.9062C6.25625 19.9062 5.46875 19.1188 5.46875 18.1562C5.46875 17.1937 6.25625 16.4062 7.21875 16.4062C8.18125 16.4062 8.96875 17.1937 8.96875 18.1562C8.96875 19.1188 8.18125 19.9062 7.21875 19.9062ZM7.21875 17.7188C6.97375 17.7188 6.78125 17.9112 6.78125 18.1562C6.78125 18.4013 6.97375 18.5938 7.21875 18.5938C7.46375 18.5938 7.65625 18.4013 7.65625 18.1562C7.65625 17.9112 7.46375 17.7188 7.21875 17.7188Z" fill="black"/>
<path d="M18.375 7.65625H7.875C7.51625 7.65625 7.21875 7.35875 7.21875 7C7.21875 6.64125 7.51625 6.34375 7.875 6.34375H18.375C18.7338 6.34375 19.0312 6.64125 19.0312 7C19.0312 7.35875 18.7338 7.65625 18.375 7.65625Z" fill="black"/>
</svg>
