<svg width="19" height="19" viewBox="0 0 19 19" fill="none" xmlns="http://www.w3.org/2000/svg">
<path d="M9.49984 10.0937C6.99025 10.0937 4.94775 8.05117 4.94775 5.54158C4.94775 3.032 6.99025 0.989502 9.49984 0.989502C12.0094 0.989502 14.0519 3.032 14.0519 5.54158C14.0519 8.05117 12.0094 10.0937 9.49984 10.0937ZM9.49984 2.177C7.64734 2.177 6.13525 3.68909 6.13525 5.54158C6.13525 7.39408 7.64734 8.90617 9.49984 8.90617C11.3523 8.90617 12.8644 7.39408 12.8644 5.54158C12.8644 3.68909 11.3523 2.177 9.49984 2.177Z" fill="white"/>
<path d="M16.3005 18.0104C15.976 18.0104 15.7068 17.7413 15.7068 17.4167C15.7068 14.6854 12.9201 12.4688 9.50012 12.4688C6.08012 12.4688 3.29346 14.6854 3.29346 17.4167C3.29346 17.7413 3.02429 18.0104 2.69971 18.0104C2.37512 18.0104 2.10596 17.7413 2.10596 17.4167C2.10596 14.0363 5.42304 11.2812 9.50012 11.2812C13.5772 11.2812 16.8943 14.0363 16.8943 17.4167C16.8943 17.7413 16.6251 18.0104 16.3005 18.0104Z" fill="white"/>
</svg>
